<svg width="64" height="90" viewBox="0 0 64 90" fill="none" xmlns="http://www.w3.org/2000/svg">
<circle cx="32" cy="32" r="32" fill="#1877F2" fill-opacity="0.1"/>
<path d="M13.0119 86V76.28H16.7679V77.252H14.3679V80.492H16.2279V81.452H14.3679V86H13.0119ZM18.8394 86.096C18.5674 86.096 18.3274 86.02 18.1194 85.868C17.9114 85.708 17.7474 85.508 17.6274 85.268C17.5074 85.02 17.4474 84.76 17.4474 84.488C17.4474 84.056 17.5194 83.692 17.6634 83.396C17.8074 83.1 18.0034 82.852 18.2514 82.652C18.5074 82.444 18.7994 82.264 19.1274 82.112C19.4634 81.96 19.8154 81.812 20.1834 81.668V81.176C20.1834 80.896 20.1674 80.664 20.1354 80.48C20.1034 80.296 20.0354 80.16 19.9314 80.072C19.8354 79.976 19.6874 79.928 19.4874 79.928C19.3114 79.928 19.1674 79.968 19.0554 80.048C18.9514 80.128 18.8754 80.244 18.8274 80.396C18.7794 80.54 18.7554 80.712 18.7554 80.912V81.26L17.4834 81.212C17.4994 80.444 17.6754 79.88 18.0114 79.52C18.3474 79.152 18.8674 78.968 19.5714 78.968C20.2594 78.968 20.7474 79.156 21.0354 79.532C21.3234 79.908 21.4674 80.452 21.4674 81.164V84.332C21.4674 84.548 21.4714 84.756 21.4794 84.956C21.4954 85.156 21.5114 85.344 21.5274 85.52C21.5514 85.688 21.5714 85.848 21.5874 86H20.4114C20.3874 85.872 20.3554 85.712 20.3154 85.52C20.2834 85.32 20.2594 85.14 20.2434 84.98C20.1634 85.252 20.0074 85.508 19.7754 85.748C19.5514 85.98 19.2394 86.096 18.8394 86.096ZM19.3434 84.992C19.4714 84.992 19.5914 84.956 19.7034 84.884C19.8154 84.812 19.9154 84.732 20.0034 84.644C20.0914 84.548 20.1514 84.472 20.1834 84.416V82.448C19.9834 82.56 19.7954 82.672 19.6194 82.784C19.4434 82.896 19.2874 83.016 19.1514 83.144C19.0234 83.264 18.9194 83.404 18.8394 83.564C18.7674 83.716 18.7314 83.892 18.7314 84.092C18.7314 84.372 18.7834 84.592 18.8874 84.752C18.9914 84.912 19.1434 84.992 19.3434 84.992ZM24.5967 86.096C24.0287 86.096 23.5967 85.984 23.3007 85.76C23.0127 85.528 22.8167 85.204 22.7127 84.788C22.6167 84.372 22.5687 83.888 22.5687 83.336V81.74C22.5687 81.156 22.6207 80.66 22.7247 80.252C22.8287 79.836 23.0247 79.52 23.3127 79.304C23.6087 79.08 24.0367 78.968 24.5967 78.968C25.1007 78.968 25.4887 79.052 25.7607 79.22C26.0407 79.38 26.2327 79.624 26.3367 79.952C26.4407 80.272 26.4927 80.672 26.4927 81.152V81.56H25.3287V81.14C25.3287 80.836 25.3087 80.596 25.2687 80.42C25.2287 80.244 25.1567 80.116 25.0527 80.036C24.9487 79.956 24.8007 79.916 24.6087 79.916C24.4007 79.916 24.2407 79.964 24.1287 80.06C24.0167 80.156 23.9407 80.32 23.9007 80.552C23.8687 80.776 23.8527 81.084 23.8527 81.476V83.66C23.8527 84.252 23.9087 84.648 24.0207 84.848C24.1327 85.048 24.3327 85.148 24.6207 85.148C24.8367 85.148 24.9927 85.1 25.0887 85.004C25.1927 84.9 25.2567 84.756 25.2807 84.572C25.3127 84.388 25.3287 84.18 25.3287 83.948V83.384H26.4927V83.864C26.4927 84.328 26.4367 84.728 26.3247 85.064C26.2207 85.4 26.0287 85.656 25.7487 85.832C25.4767 86.008 25.0927 86.096 24.5967 86.096ZM29.5543 86.096C29.0103 86.096 28.5903 85.992 28.2943 85.784C27.9983 85.568 27.7903 85.256 27.6703 84.848C27.5583 84.432 27.5023 83.924 27.5023 83.324V81.74C27.5023 81.124 27.5623 80.612 27.6823 80.204C27.8023 79.796 28.0103 79.488 28.3063 79.28C28.6103 79.072 29.0263 78.968 29.5543 78.968C30.1383 78.968 30.5663 79.088 30.8383 79.328C31.1183 79.568 31.3023 79.916 31.3903 80.372C31.4783 80.82 31.5223 81.36 31.5223 81.992V82.556H28.7863V83.948C28.7863 84.228 28.8103 84.456 28.8583 84.632C28.9143 84.808 28.9983 84.94 29.1103 85.028C29.2303 85.108 29.3823 85.148 29.5663 85.148C29.7583 85.148 29.9023 85.104 29.9983 85.016C30.1023 84.92 30.1703 84.788 30.2023 84.62C30.2423 84.444 30.2623 84.24 30.2623 84.008V83.588H31.5103V83.852C31.5103 84.548 31.3623 85.096 31.0663 85.496C30.7703 85.896 30.2663 86.096 29.5543 86.096ZM28.7863 81.86H30.2623V81.236C30.2623 80.948 30.2463 80.708 30.2143 80.516C30.1823 80.316 30.1143 80.168 30.0103 80.072C29.9143 79.968 29.7583 79.916 29.5423 79.916C29.3343 79.916 29.1743 79.964 29.0623 80.06C28.9583 80.156 28.8863 80.32 28.8463 80.552C28.8063 80.776 28.7863 81.088 28.7863 81.488V81.86ZM35.1691 86.096C34.9211 86.096 34.6971 86.036 34.4971 85.916C34.3051 85.788 34.1371 85.648 33.9931 85.496V86H32.7091V76.28H33.9931V79.616C34.1451 79.44 34.3251 79.288 34.5331 79.16C34.7491 79.032 35.0051 78.968 35.3011 78.968C35.6611 78.968 35.9451 79.064 36.1531 79.256C36.3691 79.44 36.5291 79.676 36.6331 79.964C36.7371 80.244 36.8051 80.532 36.8371 80.828C36.8691 81.116 36.8851 81.364 36.8851 81.572V83.252C36.8851 83.74 36.8371 84.204 36.7411 84.644C36.6451 85.076 36.4731 85.428 36.2251 85.7C35.9771 85.964 35.6251 86.096 35.1691 86.096ZM34.9051 85.088C35.1291 85.088 35.2891 85.008 35.3851 84.848C35.4811 84.68 35.5411 84.456 35.5651 84.176C35.5891 83.896 35.6011 83.588 35.6011 83.252V81.572C35.6011 81.284 35.5851 81.02 35.5531 80.78C35.5211 80.532 35.4531 80.336 35.3491 80.192C35.2451 80.048 35.0811 79.976 34.8571 79.976C34.6891 79.976 34.5291 80.012 34.3771 80.084C34.2331 80.156 34.1051 80.236 33.9931 80.324V84.776C34.1051 84.864 34.2371 84.94 34.3891 85.004C34.5491 85.06 34.7211 85.088 34.9051 85.088ZM39.9603 86.096C39.4483 86.096 39.0443 85.992 38.7483 85.784C38.4523 85.576 38.2403 85.28 38.1123 84.896C37.9923 84.512 37.9323 84.06 37.9323 83.54V81.524C37.9323 81.004 37.9923 80.552 38.1123 80.168C38.2403 79.784 38.4523 79.488 38.7483 79.28C39.0443 79.072 39.4483 78.968 39.9603 78.968C40.4723 78.968 40.8723 79.072 41.1603 79.28C41.4563 79.488 41.6643 79.784 41.7843 80.168C41.9123 80.552 41.9763 81.004 41.9763 81.524V83.54C41.9763 84.06 41.9123 84.512 41.7843 84.896C41.6643 85.28 41.4563 85.576 41.1603 85.784C40.8723 85.992 40.4723 86.096 39.9603 86.096ZM39.9603 85.148C40.2083 85.148 40.3803 85.076 40.4763 84.932C40.5803 84.788 40.6403 84.6 40.6563 84.368C40.6803 84.128 40.6923 83.88 40.6923 83.624V81.452C40.6923 81.188 40.6803 80.94 40.6563 80.708C40.6403 80.476 40.5803 80.288 40.4763 80.144C40.3803 79.992 40.2083 79.916 39.9603 79.916C39.7123 79.916 39.5363 79.992 39.4323 80.144C39.3283 80.288 39.2643 80.476 39.2403 80.708C39.2243 80.94 39.2163 81.188 39.2163 81.452V83.624C39.2163 83.88 39.2243 84.128 39.2403 84.368C39.2643 84.6 39.3283 84.788 39.4323 84.932C39.5363 85.076 39.7123 85.148 39.9603 85.148ZM45.058 86.096C44.546 86.096 44.142 85.992 43.846 85.784C43.55 85.576 43.338 85.28 43.21 84.896C43.09 84.512 43.03 84.06 43.03 83.54V81.524C43.03 81.004 43.09 80.552 43.21 80.168C43.338 79.784 43.55 79.488 43.846 79.28C44.142 79.072 44.546 78.968 45.058 78.968C45.57 78.968 45.97 79.072 46.258 79.28C46.554 79.488 46.762 79.784 46.882 80.168C47.01 80.552 47.074 81.004 47.074 81.524V83.54C47.074 84.06 47.01 84.512 46.882 84.896C46.762 85.28 46.554 85.576 46.258 85.784C45.97 85.992 45.57 86.096 45.058 86.096ZM45.058 85.148C45.306 85.148 45.478 85.076 45.574 84.932C45.678 84.788 45.738 84.6 45.754 84.368C45.778 84.128 45.79 83.88 45.79 83.624V81.452C45.79 81.188 45.778 80.94 45.754 80.708C45.738 80.476 45.678 80.288 45.574 80.144C45.478 79.992 45.306 79.916 45.058 79.916C44.81 79.916 44.634 79.992 44.53 80.144C44.426 80.288 44.362 80.476 44.338 80.708C44.322 80.94 44.314 81.188 44.314 81.452V83.624C44.314 83.88 44.322 84.128 44.338 84.368C44.362 84.6 44.426 84.788 44.53 84.932C44.634 85.076 44.81 85.148 45.058 85.148ZM48.2716 85.988V76.268H49.5556V82.064L51.4276 79.064H52.7716L51.1396 81.776L52.7236 86H51.4396L50.1436 82.448L49.5556 83.336V85.988H48.2716Z" fill="#1877F2"/>
<path d="M37.0117 33.5L37.6783 29.1566H33.5106V26.338C33.5106 25.1497 34.0928 23.9914 35.9594 23.9914H37.8541V20.2934C37.8541 20.2934 36.1347 20 34.4908 20C31.0586 20 28.8152 22.0803 28.8152 25.8463V29.1566H25V33.5H28.8152V44H33.5106V33.5H37.0117Z" fill="#1877F2"/>
</svg>
