<svg width="64" height="90" viewBox="0 0 64 90" fill="none" xmlns="http://www.w3.org/2000/svg">
<circle cx="32" cy="32" r="32" fill="#007EBB" fill-opacity="0.1"/>
<path d="M32.0264 44H31.9736C25.3714 44 20 38.6286 20 32.0264V31.9736C20 25.3714 25.3714 20 31.9736 20H32.0264C38.6286 20 44 25.3714 44 31.9736V32.0264C44 38.6286 38.6286 44 32.0264 44ZM31.9736 20.8124C25.8191 20.8124 20.8124 25.819 20.8124 31.9736V32.0264C20.8124 38.181 25.8191 43.1876 31.9736 43.1876H32.0264C38.181 43.1876 43.1876 38.181 43.1876 32.0264V31.9736C43.1876 25.819 38.181 20.8124 32.0264 20.8124H31.9736Z" fill="#007EBB"/>
<path d="M25.9361 28.1131C25.6306 27.8296 25.4787 27.4787 25.4787 27.0611C25.4787 26.6435 25.6314 26.2772 25.9361 25.9928C26.2415 25.7093 26.6347 25.5671 27.1164 25.5671C27.5982 25.5671 27.9759 25.7093 28.2806 25.9928C28.586 26.2763 28.7379 26.633 28.7379 27.0611C28.7379 27.4892 28.5852 27.8296 28.2806 28.1131C27.9751 28.3966 27.5876 28.5388 27.1164 28.5388C26.6453 28.5388 26.2415 28.3966 25.9361 28.1131ZM28.4812 29.7395V38.4319H25.7346V29.7395H28.4812Z" fill="#007EBB"/>
<path d="M37.6245 30.5981C38.2232 31.248 38.5222 32.14 38.5222 33.2757V38.2783H35.9136V33.6283C35.9136 33.0556 35.765 32.6104 35.4684 32.2936C35.1719 31.9767 34.7722 31.8175 34.2718 31.8175C33.7714 31.8175 33.3717 31.9759 33.0752 32.2936C32.7787 32.6104 32.63 33.0556 32.63 33.6283V38.2783H30.006V29.7151H32.63V30.8508C32.8956 30.4722 33.2539 30.1733 33.704 29.9531C34.154 29.733 34.6601 29.6233 35.2231 29.6233C36.2256 29.6233 37.0266 29.9482 37.6245 30.5981Z" fill="#007EBB"/>
<path d="M14.6037 86V76.28H15.9597V85.028H18.4437V86H14.6037ZM19.3492 86V79.064H20.6332V86H19.3492ZM19.3492 78.032V76.688H20.6332V78.032H19.3492ZM22.0074 86V79.064H23.2914V79.748C23.5234 79.532 23.7794 79.348 24.0594 79.196C24.3394 79.044 24.6474 78.968 24.9834 78.968C25.2634 78.968 25.4754 79.04 25.6194 79.184C25.7714 79.328 25.8754 79.508 25.9314 79.724C25.9954 79.94 26.0274 80.16 26.0274 80.384V86H24.7434V80.756C24.7434 80.508 24.7074 80.316 24.6354 80.18C24.5634 80.044 24.4154 79.976 24.1914 79.976C24.0474 79.976 23.8954 80.02 23.7354 80.108C23.5834 80.188 23.4354 80.288 23.2914 80.408V86H22.0074ZM27.3048 85.988V76.268H28.5888V82.064L30.4608 79.064H31.8048L30.1728 81.776L31.7568 86H30.4728L29.1768 82.448L28.5888 83.336V85.988H27.3048ZM34.3453 86.096C33.8013 86.096 33.3813 85.992 33.0853 85.784C32.7893 85.568 32.5813 85.256 32.4613 84.848C32.3493 84.432 32.2933 83.924 32.2933 83.324V81.74C32.2933 81.124 32.3533 80.612 32.4733 80.204C32.5933 79.796 32.8013 79.488 33.0973 79.28C33.4013 79.072 33.8173 78.968 34.3453 78.968C34.9293 78.968 35.3573 79.088 35.6293 79.328C35.9093 79.568 36.0933 79.916 36.1813 80.372C36.2693 80.82 36.3133 81.36 36.3133 81.992V82.556H33.5773V83.948C33.5773 84.228 33.6013 84.456 33.6493 84.632C33.7053 84.808 33.7893 84.94 33.9013 85.028C34.0213 85.108 34.1733 85.148 34.3573 85.148C34.5493 85.148 34.6933 85.104 34.7893 85.016C34.8933 84.92 34.9613 84.788 34.9933 84.62C35.0333 84.444 35.0533 84.24 35.0533 84.008V83.588H36.3013V83.852C36.3013 84.548 36.1533 85.096 35.8573 85.496C35.5613 85.896 35.0573 86.096 34.3453 86.096ZM33.5773 81.86H35.0533V81.236C35.0533 80.948 35.0373 80.708 35.0053 80.516C34.9733 80.316 34.9053 80.168 34.8013 80.072C34.7053 79.968 34.5493 79.916 34.3333 79.916C34.1253 79.916 33.9653 79.964 33.8533 80.06C33.7493 80.156 33.6773 80.32 33.6373 80.552C33.5973 80.776 33.5773 81.088 33.5773 81.488V81.86ZM39.0841 86.096C38.5001 86.096 38.0641 85.884 37.7761 85.46C37.4881 85.028 37.3441 84.3 37.3441 83.276V81.932C37.3441 81.404 37.3881 80.916 37.4761 80.468C37.5641 80.012 37.7281 79.648 37.9681 79.376C38.2161 79.104 38.5761 78.968 39.0481 78.968C39.2801 78.968 39.4921 79.02 39.6841 79.124C39.8761 79.228 40.0481 79.356 40.2001 79.508V76.28H41.4841V86H40.2001V85.556C40.0481 85.716 39.8801 85.848 39.6961 85.952C39.5201 86.048 39.3161 86.096 39.0841 86.096ZM39.4081 85.088C39.5281 85.088 39.6561 85.068 39.7921 85.028C39.9281 84.98 40.0641 84.912 40.2001 84.824V80.276C40.0881 80.196 39.9641 80.128 39.8281 80.072C39.6921 80.008 39.5441 79.976 39.3841 79.976C39.0881 79.976 38.8881 80.12 38.7841 80.408C38.6801 80.688 38.6281 81.028 38.6281 81.428V83.384C38.6281 83.704 38.6441 83.996 38.6761 84.26C38.7161 84.516 38.7921 84.72 38.9041 84.872C39.0161 85.016 39.1841 85.088 39.4081 85.088ZM42.8687 86V79.064H44.1527V86H42.8687ZM42.8687 78.032V76.688H44.1527V78.032H42.8687ZM45.5269 86V79.064H46.8109V79.748C47.0429 79.532 47.2989 79.348 47.5789 79.196C47.8589 79.044 48.1669 78.968 48.5029 78.968C48.7829 78.968 48.9949 79.04 49.1389 79.184C49.2909 79.328 49.3949 79.508 49.4509 79.724C49.5149 79.94 49.5469 80.16 49.5469 80.384V86H48.2629V80.756C48.2629 80.508 48.2269 80.316 48.1549 80.18C48.0829 80.044 47.9349 79.976 47.7109 79.976C47.5669 79.976 47.4149 80.02 47.2549 80.108C47.1029 80.188 46.9549 80.288 46.8109 80.408V86H45.5269Z" fill="#007EBB"/>
</svg>
