<svg width="64" height="90" viewBox="0 0 64 90" fill="none" xmlns="http://www.w3.org/2000/svg">
<circle cx="32" cy="32" r="32" fill="#FF0000" fill-opacity="0.1"/>
<path d="M32.0264 44H31.9736C25.3714 44 20 38.6286 20 32.0264V31.9736C20 25.3714 25.3714 20 31.9736 20H32.0264C38.6286 20 44 25.3714 44 31.9736V32.0264C44 38.6286 38.6286 44 32.0264 44ZM31.9736 20.8124C25.819 20.8124 20.8124 25.819 20.8124 31.9736V32.0264C20.8124 38.181 25.819 43.1876 31.9736 43.1876H32.0264C38.181 43.1876 43.1876 38.181 43.1876 32.0264V31.9736C43.1876 25.819 38.181 20.8124 32.0264 20.8124H31.9736Z" fill="#FF0000"/>
<path fill-rule="evenodd" clip-rule="evenodd" d="M30.9419 35.1704C30.9281 35.2183 30.9151 35.2589 30.9045 35.2996C30.2912 37.7026 30.2229 38.2363 29.5925 39.3525C29.2919 39.883 28.9532 40.3858 28.5787 40.8668C28.5364 40.9212 28.4966 40.9911 28.4121 40.974C28.3195 40.9545 28.3122 40.8708 28.3025 40.7969C28.2017 40.0666 28.1457 39.3346 28.1701 38.597C28.2017 37.6368 28.3203 37.3069 29.5584 32.1012C29.5763 32.0216 29.556 31.9558 29.53 31.8843C29.2335 31.085 29.175 30.2734 29.4341 29.4513C29.9946 27.6754 32.0077 27.5398 32.3595 29.0045C32.5764 29.9103 32.0028 31.0963 31.5625 32.8494C31.1978 34.2955 32.9005 35.3239 34.3555 34.2678C35.6975 33.2946 36.2183 30.9615 36.1191 29.3075C35.9242 26.0101 32.3083 25.2976 30.015 26.3594C27.3853 27.5755 26.7874 30.8347 27.9751 32.3246C28.1254 32.5139 28.4089 32.6301 28.3593 32.8218C28.283 33.1199 28.2155 33.4205 28.1327 33.717C28.0709 33.938 27.7192 34.0184 27.4958 33.9275C27.0579 33.7504 26.6932 33.4717 26.3975 33.1045C25.3893 31.8559 25.1009 29.3863 26.434 27.2952C27.9109 24.9791 30.6584 24.0417 33.167 24.326C36.163 24.6664 38.0567 26.7136 38.4109 29.0362C38.5725 30.0939 38.4563 32.7024 36.9713 34.5465C35.2629 36.6652 32.4935 36.8057 31.2156 35.5051C31.1173 35.4052 31.0385 35.289 30.9419 35.1696V35.1704Z" fill="#FF0000"/>
<path d="M12.9513 86V76.28H15.3633C15.9473 76.28 16.4113 76.388 16.7553 76.604C17.1073 76.812 17.3633 77.116 17.5233 77.516C17.6833 77.916 17.7633 78.4 17.7633 78.968C17.7633 79.48 17.6713 79.924 17.4873 80.3C17.3113 80.676 17.0473 80.968 16.6953 81.176C16.3433 81.376 15.9033 81.476 15.3753 81.476H14.3073V86H12.9513ZM14.3073 80.504H14.9313C15.3233 80.504 15.6313 80.46 15.8553 80.372C16.0793 80.284 16.2393 80.132 16.3353 79.916C16.4313 79.692 16.4793 79.38 16.4793 78.98C16.4793 78.516 16.4433 78.16 16.3713 77.912C16.3073 77.664 16.1673 77.492 15.9513 77.396C15.7353 77.3 15.3993 77.252 14.9433 77.252H14.3073V80.504ZM18.6929 86V79.064H19.9769V86H18.6929ZM18.6929 78.032V76.688H19.9769V78.032H18.6929ZM21.3511 86V79.064H22.6351V79.748C22.8671 79.532 23.1231 79.348 23.4031 79.196C23.6831 79.044 23.9911 78.968 24.3271 78.968C24.6071 78.968 24.8191 79.04 24.9631 79.184C25.1151 79.328 25.2191 79.508 25.2751 79.724C25.3391 79.94 25.3711 80.16 25.3711 80.384V86H24.0871V80.756C24.0871 80.508 24.0511 80.316 23.9791 80.18C23.9071 80.044 23.7591 79.976 23.5351 79.976C23.3911 79.976 23.2391 80.02 23.0791 80.108C22.9271 80.188 22.7791 80.288 22.6351 80.408V86H21.3511ZM28.4726 86.096C28.1126 86.096 27.8206 86.028 27.5966 85.892C27.3806 85.756 27.2206 85.564 27.1166 85.316C27.0206 85.068 26.9726 84.776 26.9726 84.44V79.916H26.2406V79.064H26.9726V77.036H28.2566V79.064H29.3726V79.916H28.2566V84.356C28.2566 84.628 28.3006 84.824 28.3886 84.944C28.4766 85.056 28.6446 85.112 28.8926 85.112C28.9566 85.112 29.0286 85.108 29.1086 85.1C29.1966 85.092 29.2806 85.084 29.3606 85.076V86.024C29.2006 86.048 29.0526 86.064 28.9166 86.072C28.7806 86.088 28.6326 86.096 28.4726 86.096ZM32.236 86.096C31.692 86.096 31.272 85.992 30.976 85.784C30.68 85.568 30.472 85.256 30.352 84.848C30.24 84.432 30.184 83.924 30.184 83.324V81.74C30.184 81.124 30.244 80.612 30.364 80.204C30.484 79.796 30.692 79.488 30.988 79.28C31.292 79.072 31.708 78.968 32.236 78.968C32.82 78.968 33.248 79.088 33.52 79.328C33.8 79.568 33.984 79.916 34.072 80.372C34.16 80.82 34.204 81.36 34.204 81.992V82.556H31.468V83.948C31.468 84.228 31.492 84.456 31.54 84.632C31.596 84.808 31.68 84.94 31.792 85.028C31.912 85.108 32.064 85.148 32.248 85.148C32.44 85.148 32.584 85.104 32.68 85.016C32.784 84.92 32.852 84.788 32.884 84.62C32.924 84.444 32.944 84.24 32.944 84.008V83.588H34.192V83.852C34.192 84.548 34.044 85.096 33.748 85.496C33.452 85.896 32.948 86.096 32.236 86.096ZM31.468 81.86H32.944V81.236C32.944 80.948 32.928 80.708 32.896 80.516C32.864 80.316 32.796 80.168 32.692 80.072C32.596 79.968 32.44 79.916 32.224 79.916C32.016 79.916 31.856 79.964 31.744 80.06C31.64 80.156 31.568 80.32 31.528 80.552C31.488 80.776 31.468 81.088 31.468 81.488V81.86ZM35.4028 86V79.064H36.6868V80.048C36.9428 79.624 37.1988 79.34 37.4548 79.196C37.7108 79.052 37.9668 78.98 38.2228 78.98C38.2548 78.98 38.2828 78.98 38.3068 78.98C38.3388 78.98 38.3788 78.984 38.4268 78.992V80.408C38.3308 80.368 38.2188 80.336 38.0908 80.312C37.9708 80.28 37.8468 80.264 37.7188 80.264C37.5188 80.264 37.3348 80.312 37.1668 80.408C37.0068 80.496 36.8468 80.672 36.6868 80.936V86H35.4028ZM41.1422 86.096C40.5982 86.096 40.1782 85.992 39.8822 85.784C39.5862 85.568 39.3782 85.256 39.2582 84.848C39.1462 84.432 39.0902 83.924 39.0902 83.324V81.74C39.0902 81.124 39.1502 80.612 39.2702 80.204C39.3902 79.796 39.5982 79.488 39.8942 79.28C40.1982 79.072 40.6142 78.968 41.1422 78.968C41.7262 78.968 42.1542 79.088 42.4262 79.328C42.7062 79.568 42.8902 79.916 42.9782 80.372C43.0662 80.82 43.1102 81.36 43.1102 81.992V82.556H40.3742V83.948C40.3742 84.228 40.3982 84.456 40.4462 84.632C40.5022 84.808 40.5862 84.94 40.6982 85.028C40.8182 85.108 40.9702 85.148 41.1542 85.148C41.3462 85.148 41.4902 85.104 41.5862 85.016C41.6902 84.92 41.7582 84.788 41.7902 84.62C41.8302 84.444 41.8502 84.24 41.8502 84.008V83.588H43.0982V83.852C43.0982 84.548 42.9502 85.096 42.6542 85.496C42.3582 85.896 41.8542 86.096 41.1422 86.096ZM40.3742 81.86H41.8502V81.236C41.8502 80.948 41.8342 80.708 41.8022 80.516C41.7702 80.316 41.7022 80.168 41.5982 80.072C41.5022 79.968 41.3462 79.916 41.1302 79.916C40.9222 79.916 40.7622 79.964 40.6502 80.06C40.5462 80.156 40.4742 80.32 40.4342 80.552C40.3942 80.776 40.3742 81.088 40.3742 81.488V81.86ZM45.881 86.096C45.313 86.096 44.857 85.92 44.513 85.568C44.169 85.208 43.973 84.736 43.925 84.152L44.993 83.828C45.057 84.268 45.165 84.6 45.317 84.824C45.469 85.04 45.693 85.148 45.989 85.148C46.221 85.148 46.397 85.084 46.517 84.956C46.637 84.82 46.697 84.64 46.697 84.416C46.697 84.216 46.653 84.036 46.565 83.876C46.477 83.716 46.333 83.552 46.133 83.384L44.945 82.364C44.705 82.156 44.501 81.924 44.333 81.668C44.173 81.412 44.093 81.08 44.093 80.672C44.093 80.304 44.165 79.996 44.309 79.748C44.461 79.492 44.669 79.3 44.933 79.172C45.205 79.036 45.521 78.968 45.881 78.968C46.433 78.968 46.853 79.148 47.141 79.508C47.437 79.86 47.605 80.288 47.645 80.792L46.781 81.116C46.749 80.876 46.701 80.668 46.637 80.492C46.573 80.308 46.485 80.168 46.373 80.072C46.261 79.968 46.113 79.916 45.929 79.916C45.721 79.916 45.553 79.988 45.425 80.132C45.305 80.268 45.245 80.432 45.245 80.624C45.245 80.744 45.269 80.864 45.317 80.984C45.373 81.096 45.465 81.208 45.593 81.32L46.817 82.448C46.985 82.6 47.141 82.764 47.285 82.94C47.437 83.116 47.561 83.316 47.657 83.54C47.753 83.764 47.801 84.024 47.801 84.32C47.801 84.712 47.721 85.04 47.561 85.304C47.401 85.568 47.177 85.768 46.889 85.904C46.601 86.032 46.265 86.096 45.881 86.096ZM50.6093 86.096C50.2493 86.096 49.9573 86.028 49.7333 85.892C49.5173 85.756 49.3573 85.564 49.2533 85.316C49.1573 85.068 49.1093 84.776 49.1093 84.44V79.916H48.3773V79.064H49.1093V77.036H50.3933V79.064H51.5093V79.916H50.3933V84.356C50.3933 84.628 50.4373 84.824 50.5253 84.944C50.6133 85.056 50.7813 85.112 51.0293 85.112C51.0933 85.112 51.1653 85.108 51.2453 85.1C51.3333 85.092 51.4173 85.084 51.4973 85.076V86.024C51.3373 86.048 51.1893 86.064 51.0533 86.072C50.9173 86.088 50.7693 86.096 50.6093 86.096Z" fill="#FF0000"/>
</svg>
