<svg width="64" height="90" viewBox="0 0 64 90" fill="none" xmlns="http://www.w3.org/2000/svg">
<circle cx="32" cy="32" r="32" fill="#FF4500" fill-opacity="0.1"/>
<path d="M19.0939 86V76.28H21.0499C21.6979 76.28 22.2339 76.368 22.6579 76.544C23.0819 76.712 23.3939 76.988 23.5939 77.372C23.8019 77.748 23.9059 78.244 23.9059 78.86C23.9059 79.236 23.8659 79.58 23.7859 79.892C23.7059 80.196 23.5779 80.456 23.4019 80.672C23.2259 80.88 22.9939 81.032 22.7059 81.128L24.0859 86H22.7779L21.5059 81.44H20.4499V86H19.0939ZM20.4499 80.468H20.9659C21.3499 80.468 21.6619 80.42 21.9019 80.324C22.1419 80.228 22.3179 80.064 22.4299 79.832C22.5419 79.6 22.5979 79.276 22.5979 78.86C22.5979 78.292 22.4939 77.884 22.2859 77.636C22.0779 77.38 21.6659 77.252 21.0499 77.252H20.4499V80.468ZM27.1285 86.096C26.5845 86.096 26.1645 85.992 25.8685 85.784C25.5725 85.568 25.3645 85.256 25.2445 84.848C25.1325 84.432 25.0765 83.924 25.0765 83.324V81.74C25.0765 81.124 25.1365 80.612 25.2565 80.204C25.3765 79.796 25.5845 79.488 25.8805 79.28C26.1845 79.072 26.6005 78.968 27.1285 78.968C27.7125 78.968 28.1405 79.088 28.4125 79.328C28.6925 79.568 28.8765 79.916 28.9645 80.372C29.0525 80.82 29.0965 81.36 29.0965 81.992V82.556H26.3605V83.948C26.3605 84.228 26.3845 84.456 26.4325 84.632C26.4885 84.808 26.5725 84.94 26.6845 85.028C26.8045 85.108 26.9565 85.148 27.1405 85.148C27.3325 85.148 27.4765 85.104 27.5725 85.016C27.6765 84.92 27.7445 84.788 27.7765 84.62C27.8165 84.444 27.8365 84.24 27.8365 84.008V83.588H29.0845V83.852C29.0845 84.548 28.9365 85.096 28.6405 85.496C28.3445 85.896 27.8405 86.096 27.1285 86.096ZM26.3605 81.86H27.8365V81.236C27.8365 80.948 27.8205 80.708 27.7885 80.516C27.7565 80.316 27.6885 80.168 27.5845 80.072C27.4885 79.968 27.3325 79.916 27.1165 79.916C26.9085 79.916 26.7485 79.964 26.6365 80.06C26.5325 80.156 26.4605 80.32 26.4205 80.552C26.3805 80.776 26.3605 81.088 26.3605 81.488V81.86ZM31.8673 86.096C31.2833 86.096 30.8473 85.884 30.5593 85.46C30.2713 85.028 30.1273 84.3 30.1273 83.276V81.932C30.1273 81.404 30.1713 80.916 30.2593 80.468C30.3473 80.012 30.5113 79.648 30.7513 79.376C30.9993 79.104 31.3593 78.968 31.8313 78.968C32.0633 78.968 32.2753 79.02 32.4673 79.124C32.6593 79.228 32.8313 79.356 32.9833 79.508V76.28H34.2673V86H32.9833V85.556C32.8313 85.716 32.6633 85.848 32.4793 85.952C32.3033 86.048 32.0993 86.096 31.8673 86.096ZM32.1913 85.088C32.3113 85.088 32.4393 85.068 32.5753 85.028C32.7113 84.98 32.8473 84.912 32.9833 84.824V80.276C32.8713 80.196 32.7473 80.128 32.6113 80.072C32.4753 80.008 32.3273 79.976 32.1673 79.976C31.8713 79.976 31.6713 80.12 31.5673 80.408C31.4633 80.688 31.4113 81.028 31.4113 81.428V83.384C31.4113 83.704 31.4273 83.996 31.4593 84.26C31.4993 84.516 31.5753 84.72 31.6873 84.872C31.7993 85.016 31.9673 85.088 32.1913 85.088ZM37.1759 86.096C36.5919 86.096 36.1559 85.884 35.8679 85.46C35.5799 85.028 35.4359 84.3 35.4359 83.276V81.932C35.4359 81.404 35.4799 80.916 35.5679 80.468C35.6559 80.012 35.8199 79.648 36.0599 79.376C36.3079 79.104 36.6679 78.968 37.1399 78.968C37.3719 78.968 37.5839 79.02 37.7759 79.124C37.9679 79.228 38.1399 79.356 38.2919 79.508V76.28H39.5759V86H38.2919V85.556C38.1399 85.716 37.9719 85.848 37.7879 85.952C37.6119 86.048 37.4079 86.096 37.1759 86.096ZM37.4999 85.088C37.6199 85.088 37.7479 85.068 37.8839 85.028C38.0199 84.98 38.1559 84.912 38.2919 84.824V80.276C38.1799 80.196 38.0559 80.128 37.9199 80.072C37.7839 80.008 37.6359 79.976 37.4759 79.976C37.1799 79.976 36.9799 80.12 36.8759 80.408C36.7719 80.688 36.7199 81.028 36.7199 81.428V83.384C36.7199 83.704 36.7359 83.996 36.7679 84.26C36.8079 84.516 36.8839 84.72 36.9959 84.872C37.1079 85.016 37.2759 85.088 37.4999 85.088ZM40.9605 86V79.064H42.2445V86H40.9605ZM40.9605 78.032V76.688H42.2445V78.032H40.9605ZM45.4667 86.096C45.1067 86.096 44.8147 86.028 44.5907 85.892C44.3747 85.756 44.2147 85.564 44.1107 85.316C44.0147 85.068 43.9667 84.776 43.9667 84.44V79.916H43.2347V79.064H43.9667V77.036H45.2507V79.064H46.3667V79.916H45.2507V84.356C45.2507 84.628 45.2947 84.824 45.3827 84.944C45.4707 85.056 45.6387 85.112 45.8867 85.112C45.9507 85.112 46.0227 85.108 46.1027 85.1C46.1907 85.092 46.2747 85.084 46.3547 85.076V86.024C46.1947 86.048 46.0467 86.064 45.9107 86.072C45.7747 86.088 45.6267 86.096 45.4667 86.096Z" fill="#FF4500"/>
<path d="M41.3237 29.6803C40.565 29.6803 39.8973 29.9939 39.4066 30.4846C37.6007 29.2352 35.1676 28.4309 32.4715 28.3449L33.8726 22.0319L38.3342 23.0335C38.3342 24.1261 39.2245 25.0164 40.3171 25.0164C41.43 25.0164 42.3253 24.1008 42.3253 23.0082C42.3253 21.9156 41.435 21 40.3171 21C39.5381 21 38.8653 21.4704 38.5315 22.1129L33.6046 21.0202C33.3567 20.9545 33.1139 21.1315 33.0481 21.3794L31.5104 28.3398C28.8344 28.4511 26.4266 29.2554 24.6157 30.5048C24.125 29.9939 23.432 29.6803 22.6732 29.6803C19.8607 29.6803 18.9401 33.4539 21.5149 34.7438C21.4238 35.1434 21.3833 35.5683 21.3833 35.9932C21.3833 40.2322 26.1585 43.6669 32.0213 43.6669C37.9093 43.6669 42.6845 40.2322 42.6845 35.9932C42.6845 35.5683 42.6389 35.1232 42.5277 34.7236C45.0518 33.4286 44.1211 29.6803 41.3237 29.6803ZM25.597 35.0119C25.597 33.899 26.4873 33.0037 27.6052 33.0037C28.6979 33.0037 29.5881 33.894 29.5881 35.0119C29.5881 36.1045 28.6979 36.9948 27.6052 36.9948C26.4924 36.9999 25.597 36.1045 25.597 35.0119ZM36.4373 39.7415C34.596 41.5828 29.401 41.5828 27.5597 39.7415C27.3574 39.5645 27.3574 39.2509 27.5597 39.0485C27.7368 38.8715 28.0504 38.8715 28.2274 39.0485C29.6337 40.4902 34.2976 40.5155 35.7645 39.0485C35.9416 38.8715 36.2552 38.8715 36.4322 39.0485C36.6396 39.2509 36.6396 39.5645 36.4373 39.7415ZM36.3968 36.9999C35.3042 36.9999 34.4139 36.1096 34.4139 35.017C34.4139 33.9041 35.3042 33.0088 36.3968 33.0088C37.5097 33.0088 38.405 33.899 38.405 35.017C38.4 36.1045 37.5097 36.9999 36.3968 36.9999Z" fill="#FF4500"/>
</svg>
