<svg width="64" height="90" viewBox="0 0 64 90" fill="none" xmlns="http://www.w3.org/2000/svg">
<circle cx="32" cy="32" r="32" fill="#1DA1F2" fill-opacity="0.1"/>
<path d="M18.3025 86V77.288H16.6585V76.28H21.2545V77.288H19.6585V86H18.3025ZM22.8875 86L21.7715 79.064H22.8275L23.5475 84.176L24.4715 79.064H25.4555L26.3795 84.152L27.0995 79.064H28.1555L27.0035 86H25.9235L24.9755 81.104L24.0395 86H22.8875ZM29.2222 86V79.064H30.5062V86H29.2222ZM29.2222 78.032V76.688H30.5062V78.032H29.2222ZM33.7284 86.096C33.3684 86.096 33.0764 86.028 32.8524 85.892C32.6364 85.756 32.4764 85.564 32.3724 85.316C32.2764 85.068 32.2284 84.776 32.2284 84.44V79.916H31.4964V79.064H32.2284V77.036H33.5124V79.064H34.6284V79.916H33.5124V84.356C33.5124 84.628 33.5564 84.824 33.6444 84.944C33.7324 85.056 33.9004 85.112 34.1484 85.112C34.2124 85.112 34.2844 85.108 34.3644 85.1C34.4524 85.092 34.5364 85.084 34.6164 85.076V86.024C34.4564 86.048 34.3084 86.064 34.1724 86.072C34.0364 86.088 33.8884 86.096 33.7284 86.096ZM37.4198 86.096C37.0598 86.096 36.7678 86.028 36.5438 85.892C36.3278 85.756 36.1678 85.564 36.0638 85.316C35.9678 85.068 35.9198 84.776 35.9198 84.44V79.916H35.1878V79.064H35.9198V77.036H37.2038V79.064H38.3198V79.916H37.2038V84.356C37.2038 84.628 37.2478 84.824 37.3358 84.944C37.4238 85.056 37.5918 85.112 37.8398 85.112C37.9038 85.112 37.9758 85.108 38.0558 85.1C38.1438 85.092 38.2278 85.084 38.3078 85.076V86.024C38.1478 86.048 37.9998 86.064 37.8638 86.072C37.7278 86.088 37.5798 86.096 37.4198 86.096ZM41.1832 86.096C40.6392 86.096 40.2192 85.992 39.9232 85.784C39.6272 85.568 39.4192 85.256 39.2992 84.848C39.1872 84.432 39.1312 83.924 39.1312 83.324V81.74C39.1312 81.124 39.1912 80.612 39.3112 80.204C39.4312 79.796 39.6392 79.488 39.9352 79.28C40.2392 79.072 40.6552 78.968 41.1832 78.968C41.7672 78.968 42.1952 79.088 42.4672 79.328C42.7472 79.568 42.9312 79.916 43.0192 80.372C43.1072 80.82 43.1512 81.36 43.1512 81.992V82.556H40.4152V83.948C40.4152 84.228 40.4392 84.456 40.4872 84.632C40.5432 84.808 40.6272 84.94 40.7392 85.028C40.8592 85.108 41.0112 85.148 41.1952 85.148C41.3872 85.148 41.5312 85.104 41.6272 85.016C41.7312 84.92 41.7992 84.788 41.8312 84.62C41.8712 84.444 41.8912 84.24 41.8912 84.008V83.588H43.1392V83.852C43.1392 84.548 42.9912 85.096 42.6952 85.496C42.3992 85.896 41.8952 86.096 41.1832 86.096ZM40.4152 81.86H41.8912V81.236C41.8912 80.948 41.8752 80.708 41.8432 80.516C41.8112 80.316 41.7432 80.168 41.6392 80.072C41.5432 79.968 41.3872 79.916 41.1712 79.916C40.9632 79.916 40.8032 79.964 40.6912 80.06C40.5872 80.156 40.5152 80.32 40.4752 80.552C40.4352 80.776 40.4152 81.088 40.4152 81.488V81.86ZM44.35 86V79.064H45.634V80.048C45.89 79.624 46.146 79.34 46.402 79.196C46.658 79.052 46.914 78.98 47.17 78.98C47.202 78.98 47.23 78.98 47.254 78.98C47.286 78.98 47.326 78.984 47.374 78.992V80.408C47.278 80.368 47.166 80.336 47.038 80.312C46.918 80.28 46.794 80.264 46.666 80.264C46.466 80.264 46.282 80.312 46.114 80.408C45.954 80.496 45.794 80.672 45.634 80.936V86H44.35Z" fill="#1DA1F2"/>
<path d="M41.5331 26.8579C41.5483 27.0711 41.5483 27.2843 41.5483 27.4975C41.5483 34 36.5991 41.4924 27.5533 41.4924C24.7665 41.4924 22.1777 40.6853 20 39.2843C20.396 39.33 20.7766 39.3452 21.1878 39.3452C23.4873 39.3452 25.6041 38.5686 27.2944 37.2437C25.132 37.198 23.3198 35.7818 22.6954 33.8325C23 33.8782 23.3046 33.9086 23.6244 33.9086C24.066 33.9086 24.5077 33.8477 24.9188 33.7412C22.665 33.2843 20.9746 31.3046 20.9746 28.9137V28.8528C21.6294 29.2183 22.3909 29.4467 23.1979 29.4772C21.873 28.5939 21.0051 27.0863 21.0051 25.3807C21.0051 24.467 21.2487 23.6294 21.6751 22.8985C24.0964 25.8832 27.736 27.8324 31.8172 28.0457C31.7411 27.6802 31.6954 27.2995 31.6954 26.9188C31.6954 24.2081 33.8883 22 36.6142 22C38.0304 22 39.3096 22.5939 40.2081 23.5533C41.3198 23.3401 42.3858 22.9289 43.33 22.3655C42.9644 23.5076 42.1878 24.467 41.1675 25.0761C42.1574 24.9696 43.1168 24.6954 44 24.3147C43.3301 25.2893 42.4924 26.1573 41.5331 26.8579Z" fill="#1DA1F2"/>
</svg>
