<svg width="64" height="90" viewBox="0 0 64 90" fill="none" xmlns="http://www.w3.org/2000/svg">
<circle cx="32" cy="32" r="32" fill="#25D366" fill-opacity="0.1"/>
<path d="M12.0668 86L10.4828 76.28H11.6108L12.6548 83.264L13.9628 76.316H14.9228L16.2428 83.3L17.2628 76.28H18.3668L16.8068 86H15.8228L14.4668 78.8L13.0988 86H12.0668ZM19.477 86V76.28H20.761V79.784C20.993 79.56 21.253 79.368 21.541 79.208C21.829 79.048 22.149 78.968 22.501 78.968C22.773 78.968 22.981 79.04 23.125 79.184C23.277 79.328 23.381 79.508 23.437 79.724C23.501 79.94 23.533 80.16 23.533 80.384V86H22.249V80.756C22.249 80.508 22.213 80.316 22.141 80.18C22.069 80.044 21.921 79.976 21.697 79.976C21.545 79.976 21.385 80.02 21.217 80.108C21.057 80.196 20.905 80.304 20.761 80.432V86H19.477ZM26.0327 86.096C25.7607 86.096 25.5207 86.02 25.3127 85.868C25.1047 85.708 24.9407 85.508 24.8207 85.268C24.7007 85.02 24.6407 84.76 24.6407 84.488C24.6407 84.056 24.7127 83.692 24.8567 83.396C25.0007 83.1 25.1967 82.852 25.4447 82.652C25.7007 82.444 25.9927 82.264 26.3207 82.112C26.6567 81.96 27.0087 81.812 27.3767 81.668V81.176C27.3767 80.896 27.3607 80.664 27.3287 80.48C27.2967 80.296 27.2287 80.16 27.1247 80.072C27.0287 79.976 26.8807 79.928 26.6807 79.928C26.5047 79.928 26.3607 79.968 26.2487 80.048C26.1447 80.128 26.0687 80.244 26.0207 80.396C25.9727 80.54 25.9487 80.712 25.9487 80.912V81.26L24.6767 81.212C24.6927 80.444 24.8687 79.88 25.2047 79.52C25.5407 79.152 26.0607 78.968 26.7647 78.968C27.4527 78.968 27.9407 79.156 28.2287 79.532C28.5167 79.908 28.6607 80.452 28.6607 81.164V84.332C28.6607 84.548 28.6647 84.756 28.6727 84.956C28.6887 85.156 28.7047 85.344 28.7207 85.52C28.7447 85.688 28.7647 85.848 28.7807 86H27.6047C27.5807 85.872 27.5487 85.712 27.5087 85.52C27.4767 85.32 27.4527 85.14 27.4367 84.98C27.3567 85.252 27.2007 85.508 26.9687 85.748C26.7447 85.98 26.4327 86.096 26.0327 86.096ZM26.5367 84.992C26.6647 84.992 26.7847 84.956 26.8967 84.884C27.0087 84.812 27.1087 84.732 27.1967 84.644C27.2847 84.548 27.3447 84.472 27.3767 84.416V82.448C27.1767 82.56 26.9887 82.672 26.8127 82.784C26.6367 82.896 26.4807 83.016 26.3447 83.144C26.2167 83.264 26.1127 83.404 26.0327 83.564C25.9607 83.716 25.9247 83.892 25.9247 84.092C25.9247 84.372 25.9767 84.592 26.0807 84.752C26.1847 84.912 26.3367 84.992 26.5367 84.992ZM31.6483 86.096C31.2883 86.096 30.9963 86.028 30.7723 85.892C30.5563 85.756 30.3963 85.564 30.2923 85.316C30.1963 85.068 30.1483 84.776 30.1483 84.44V79.916H29.4163V79.064H30.1483V77.036H31.4323V79.064H32.5483V79.916H31.4323V84.356C31.4323 84.628 31.4763 84.824 31.5643 84.944C31.6523 85.056 31.8203 85.112 32.0683 85.112C32.1323 85.112 32.2043 85.108 32.2843 85.1C32.3723 85.092 32.4563 85.084 32.5363 85.076V86.024C32.3763 86.048 32.2283 86.064 32.0923 86.072C31.9563 86.088 31.8083 86.096 31.6483 86.096ZM35.0998 86.096C34.5318 86.096 34.0758 85.92 33.7318 85.568C33.3878 85.208 33.1918 84.736 33.1438 84.152L34.2118 83.828C34.2758 84.268 34.3838 84.6 34.5358 84.824C34.6878 85.04 34.9118 85.148 35.2078 85.148C35.4398 85.148 35.6158 85.084 35.7358 84.956C35.8558 84.82 35.9158 84.64 35.9158 84.416C35.9158 84.216 35.8718 84.036 35.7838 83.876C35.6958 83.716 35.5518 83.552 35.3518 83.384L34.1638 82.364C33.9238 82.156 33.7198 81.924 33.5518 81.668C33.3918 81.412 33.3118 81.08 33.3118 80.672C33.3118 80.304 33.3838 79.996 33.5278 79.748C33.6798 79.492 33.8878 79.3 34.1518 79.172C34.4238 79.036 34.7398 78.968 35.0998 78.968C35.6518 78.968 36.0718 79.148 36.3598 79.508C36.6558 79.86 36.8238 80.288 36.8638 80.792L35.9998 81.116C35.9678 80.876 35.9198 80.668 35.8558 80.492C35.7918 80.308 35.7038 80.168 35.5918 80.072C35.4798 79.968 35.3318 79.916 35.1478 79.916C34.9398 79.916 34.7718 79.988 34.6438 80.132C34.5238 80.268 34.4638 80.432 34.4638 80.624C34.4638 80.744 34.4878 80.864 34.5358 80.984C34.5918 81.096 34.6838 81.208 34.8118 81.32L36.0358 82.448C36.2038 82.6 36.3598 82.764 36.5038 82.94C36.6558 83.116 36.7798 83.316 36.8758 83.54C36.9718 83.764 37.0198 84.024 37.0198 84.32C37.0198 84.712 36.9398 85.04 36.7798 85.304C36.6198 85.568 36.3958 85.768 36.1078 85.904C35.8198 86.032 35.4838 86.096 35.0998 86.096ZM37.56 86L39.624 76.28H40.932L43.008 86H41.724L41.28 83.552H39.3L38.832 86H37.56ZM39.48 82.58H41.1L40.284 78.2L39.48 82.58ZM43.8863 88.28V79.064H45.1703V79.616C45.3223 79.44 45.5063 79.288 45.7223 79.16C45.9383 79.032 46.1943 78.968 46.4903 78.968C46.8503 78.968 47.1343 79.064 47.3423 79.256C47.5583 79.44 47.7183 79.676 47.8223 79.964C47.9263 80.244 47.9943 80.532 48.0263 80.828C48.0583 81.116 48.0743 81.364 48.0743 81.572V83.252C48.0743 83.74 48.0263 84.204 47.9303 84.644C47.8343 85.076 47.6583 85.428 47.4023 85.7C47.1543 85.964 46.8023 86.096 46.3463 86.096C46.0983 86.096 45.8783 86.036 45.6863 85.916C45.4943 85.788 45.3223 85.644 45.1703 85.484V88.28H43.8863ZM46.0943 85.088C46.3183 85.088 46.4783 85.008 46.5743 84.848C46.6703 84.68 46.7303 84.456 46.7543 84.176C46.7783 83.896 46.7903 83.588 46.7903 83.252V81.572C46.7903 81.284 46.7743 81.02 46.7423 80.78C46.7103 80.532 46.6423 80.336 46.5383 80.192C46.4343 80.048 46.2703 79.976 46.0463 79.976C45.8783 79.976 45.7183 80.012 45.5663 80.084C45.4143 80.156 45.2823 80.24 45.1703 80.336V84.776C45.2903 84.864 45.4263 84.94 45.5783 85.004C45.7303 85.06 45.9023 85.088 46.0943 85.088ZM49.2418 88.28V79.064H50.5258V79.616C50.6778 79.44 50.8618 79.288 51.0778 79.16C51.2938 79.032 51.5498 78.968 51.8458 78.968C52.2058 78.968 52.4898 79.064 52.6978 79.256C52.9138 79.44 53.0738 79.676 53.1778 79.964C53.2818 80.244 53.3498 80.532 53.3818 80.828C53.4138 81.116 53.4298 81.364 53.4298 81.572V83.252C53.4298 83.74 53.3818 84.204 53.2858 84.644C53.1898 85.076 53.0138 85.428 52.7578 85.7C52.5098 85.964 52.1578 86.096 51.7018 86.096C51.4538 86.096 51.2338 86.036 51.0418 85.916C50.8498 85.788 50.6778 85.644 50.5258 85.484V88.28H49.2418ZM51.4498 85.088C51.6738 85.088 51.8338 85.008 51.9298 84.848C52.0258 84.68 52.0858 84.456 52.1098 84.176C52.1338 83.896 52.1458 83.588 52.1458 83.252V81.572C52.1458 81.284 52.1298 81.02 52.0978 80.78C52.0658 80.532 51.9978 80.336 51.8938 80.192C51.7898 80.048 51.6258 79.976 51.4018 79.976C51.2338 79.976 51.0738 80.012 50.9218 80.084C50.7698 80.156 50.6378 80.24 50.5258 80.336V84.776C50.6458 84.864 50.7818 84.94 50.9338 85.004C51.0858 85.06 51.2578 85.088 51.4498 85.088Z" fill="#25D366"/>
<path d="M40.4054 23.4875C38.1607 21.2375 35.1714 20 31.9946 20C25.4375 20 20.1018 25.3357 20.1018 31.8929C20.1018 33.9875 20.6482 36.0339 21.6875 37.8393L20 44L26.3054 42.3446C28.0411 43.2929 29.9964 43.7911 31.9893 43.7911H31.9946C38.5464 43.7911 44 38.4554 44 31.8982C44 28.7214 42.65 25.7375 40.4054 23.4875ZM31.9946 41.7875C30.2161 41.7875 28.475 41.3107 26.9589 40.4107L26.6 40.1964L22.8607 41.1768L23.8571 37.5286L23.6214 37.1536C22.6304 35.5786 22.1107 33.7625 22.1107 31.8929C22.1107 26.4446 26.5464 22.0089 32 22.0089C34.6411 22.0089 37.1214 23.0375 38.9857 24.9071C40.85 26.7768 41.9964 29.2571 41.9911 31.8982C41.9911 37.3518 37.4429 41.7875 31.9946 41.7875ZM37.4161 34.3839C37.1214 34.2339 35.6589 33.5161 35.3857 33.4196C35.1125 33.3179 34.9143 33.2696 34.7161 33.5696C34.5179 33.8696 33.95 34.5339 33.7732 34.7375C33.6018 34.9357 33.425 34.9625 33.1304 34.8125C31.3839 33.9393 30.2375 33.2536 29.0857 31.2768C28.7804 30.7518 29.3911 30.7893 29.9589 29.6536C30.0554 29.4554 30.0071 29.2839 29.9321 29.1339C29.8571 28.9839 29.2625 27.5214 29.0161 26.9268C28.775 26.3482 28.5286 26.4286 28.3464 26.4179C28.175 26.4071 27.9768 26.4071 27.7786 26.4071C27.5804 26.4071 27.2589 26.4821 26.9857 26.7768C26.7125 27.0768 25.9464 27.7946 25.9464 29.2571C25.9464 30.7196 27.0125 32.1339 27.1571 32.3321C27.3071 32.5304 29.2518 35.5304 32.2357 36.8214C34.1214 37.6357 34.8607 37.7054 35.8036 37.5661C36.3768 37.4804 37.5607 36.8482 37.8071 36.1518C38.0536 35.4554 38.0536 34.8607 37.9786 34.7375C37.9089 34.6036 37.7107 34.5286 37.4161 34.3839Z" fill="#25D366"/>
</svg>
